<svg width="38" height="38" viewBox="0 0 38 38" fill="none" xmlns="http://www.w3.org/2000/svg">
<rect x="0.5" y="0.5" width="37" height="37" rx="18.5" fill="#EDF0F5"/>
<path d="M8.94 18.42C10.752 18.276 12.348 17.724 13.008 16.728C13.668 17.724 15.252 18.276 17.052 18.42L17.352 17.676C15.348 17.544 13.728 16.884 13.56 15.816H16.872V15.072H13.5V14.052H12.516V15.072H9.132V15.816H12.456C12.288 16.884 10.644 17.544 8.652 17.676L8.94 18.42ZM17.856 19.656V18.9H8.148V19.656H12.504V20.652H9.3V21.384H15.648V22.296H9.336V24.768H16.944V24.024H10.296V23.004H16.62V20.652H13.5V19.656H17.856ZM25.4631 19.248C23.9031 18.696 22.8351 17.316 22.8351 15.84V14.664H21.8511V15.804C21.8511 17.436 20.8191 18.888 19.1871 19.476L19.7031 20.268C20.9631 19.764 21.9111 18.804 22.3671 17.544C22.8351 18.672 23.7591 19.572 24.9351 20.028L25.4631 19.248ZM20.8311 21.876H27.0471V24.9H28.0431V21.084H20.8311V21.876ZM27.0471 14.136V16.38H24.7071V17.184H27.0471V20.484H28.0431V14.136H27.0471Z" fill="#304260"/>
<rect x="0.5" y="0.5" width="37" height="37" rx="18.5" stroke="#304260"/>
</svg>
