<svg width="38" height="38" viewBox="0 0 38 38" fill="none" xmlns="http://www.w3.org/2000/svg">
    <rect width="38" height="38" rx="19" fill="#FF5C00"/>
    <path d="M9.456 24H7.644V19.044C7.644 18.908 7.644 18.74 7.644 18.54C7.652 18.34 7.66 18.132 7.668 17.916C7.676 17.7 7.684 17.508 7.692 17.34C7.652 17.388 7.564 17.476 7.428 17.604C7.3 17.724 7.18 17.832 7.068 17.928L6.084 18.72L5.208 17.628L7.968 15.432H9.456V24ZM17.7872 19.716C17.7872 20.404 17.7312 21.02 17.6192 21.564C17.5152 22.108 17.3432 22.572 17.1032 22.956C16.8712 23.332 16.5632 23.62 16.1792 23.82C15.8032 24.02 15.3392 24.12 14.7872 24.12C14.0992 24.12 13.5352 23.944 13.0952 23.592C12.6552 23.24 12.3272 22.736 12.1112 22.08C11.9032 21.424 11.7992 20.636 11.7992 19.716C11.7992 18.788 11.8952 17.996 12.0872 17.34C12.2792 16.684 12.5952 16.18 13.0352 15.828C13.4752 15.476 14.0592 15.3 14.7872 15.3C15.4752 15.3 16.0392 15.476 16.4792 15.828C16.9192 16.172 17.2472 16.676 17.4632 17.34C17.6792 17.996 17.7872 18.788 17.7872 19.716ZM13.5992 19.716C13.5992 20.364 13.6352 20.908 13.7072 21.348C13.7792 21.78 13.8992 22.108 14.0672 22.332C14.2432 22.548 14.4832 22.656 14.7872 22.656C15.0912 22.656 15.3272 22.548 15.4952 22.332C15.6712 22.116 15.7952 21.792 15.8672 21.36C15.9472 20.92 15.9872 20.372 15.9872 19.716C15.9872 19.06 15.9472 18.516 15.8672 18.084C15.7952 17.644 15.6712 17.316 15.4952 17.1C15.3272 16.876 15.0912 16.764 14.7872 16.764C14.4832 16.764 14.2432 16.876 14.0672 17.1C13.8992 17.316 13.7792 17.644 13.7072 18.084C13.6352 18.516 13.5992 19.06 13.5992 19.716ZM24.6544 19.716C24.6544 20.404 24.5984 21.02 24.4864 21.564C24.3824 22.108 24.2104 22.572 23.9704 22.956C23.7384 23.332 23.4304 23.62 23.0464 23.82C22.6704 24.02 22.2064 24.12 21.6544 24.12C20.9664 24.12 20.4024 23.944 19.9624 23.592C19.5224 23.24 19.1944 22.736 18.9784 22.08C18.7704 21.424 18.6664 20.636 18.6664 19.716C18.6664 18.788 18.7624 17.996 18.9544 17.34C19.1464 16.684 19.4624 16.18 19.9024 15.828C20.3424 15.476 20.9264 15.3 21.6544 15.3C22.3424 15.3 22.9064 15.476 23.3464 15.828C23.7864 16.172 24.1144 16.676 24.3304 17.34C24.5464 17.996 24.6544 18.788 24.6544 19.716ZM20.4664 19.716C20.4664 20.364 20.5024 20.908 20.5744 21.348C20.6464 21.78 20.7664 22.108 20.9344 22.332C21.1104 22.548 21.3504 22.656 21.6544 22.656C21.9584 22.656 22.1944 22.548 22.3624 22.332C22.5384 22.116 22.6624 21.792 22.7344 21.36C22.8144 20.92 22.8544 20.372 22.8544 19.716C22.8544 19.06 22.8144 18.516 22.7344 18.084C22.6624 17.644 22.5384 17.316 22.3624 17.1C22.1944 16.876 21.9584 16.764 21.6544 16.764C21.3504 16.764 21.1104 16.876 20.9344 17.1C20.7664 17.316 20.6464 17.644 20.5744 18.084C20.5024 18.516 20.4664 19.06 20.4664 19.716ZM28.9176 15.432C30.0216 15.432 30.8256 15.672 31.3296 16.152C31.8416 16.624 32.0976 17.276 32.0976 18.108C32.0976 18.484 32.0416 18.844 31.9296 19.188C31.8176 19.524 31.6296 19.828 31.3656 20.1C31.1096 20.364 30.7696 20.572 30.3456 20.724C29.9216 20.876 29.3976 20.952 28.7736 20.952H27.9936V24H26.1816V15.432H28.9176ZM28.8216 16.92H27.9936V19.464H28.5936C28.9376 19.464 29.2336 19.42 29.4816 19.332C29.7296 19.244 29.9216 19.104 30.0576 18.912C30.1936 18.72 30.2616 18.472 30.2616 18.168C30.2616 17.744 30.1456 17.432 29.9136 17.232C29.6816 17.024 29.3176 16.92 28.8216 16.92Z" fill="white"/>
</svg>
