<svg width="21" height="25" viewBox="0 0 21 25" fill="none" xmlns="http://www.w3.org/2000/svg">
<path d="M3.82979 1H17.1702M3.82979 1V14.4734M3.82979 1L17.1702 14.4734M17.1702 1V14.4734M17.1702 1L3.82979 14.4734M17.1702 14.4734L19.3033 16.6278C19.6892 17.0175 19.6892 17.6452 19.3034 18.035L14.1078 23.2823C13.7165 23.6775 13.0779 23.6775 12.6866 23.2823L10.5 21.074M17.1702 14.4734L10.5 21.074M10.5 21.074L8.31344 23.2823C7.92213 23.6775 7.28354 23.6775 6.89223 23.2823L1.69665 18.035C1.31079 17.6452 1.31079 17.0175 1.69665 16.6278L3.82979 14.4734" stroke="#304260" stroke-width="1.75" stroke-linejoin="round"/>
</svg>
